<svg xmlns:gliffy="http://www.gliffy.com" xmlns:x="http://ns.adobe.com/Extensibility/1.0/" xmlns:i="http://ns.adobe.com/AdobeIllustrator/10.0/" xmlns:graph="http://ns.adobe.com/Graphs/1.0/" xmlns:a="http://ns.adobe.com/AdobeSVGViewerExtensions/3.0/" xmlns="http://www.w3.org/2000/svg" xmlns:xlink="http://www.w3.org/1999/xlink" width="610" height="558"><rect stroke="#000000" stroke-width="0" fill="#ffffff" x="0" y="0" width="609" height="557"/><g transform='translate(490.0,121.5) rotate(0 50.0 37.5)'><defs><linearGradient id='g0' x1='50%' y1='-25%' x2='50%' y2='100%'><stop stop-color='white' offset='0%'/><stop stop-color='#d1d1d1' offset='100%'/></linearGradient></defs><g transform='translate(4.0,4.0)'><path d="M0,0 Q0,-9.375 50.0,-9.375 Q100.0,-9.375 100.0,0 L100.0,65.625 Q100.0,75.0 50.0,75.0 Q0,75.0 0,65.625 L0,0 Z" stroke="#A8A8A8" stroke-width="0" stroke-opacity=".6" fill-opacity=".6" fill="#A8A8A8"/></g><path d="M0,0 Q0,-9.375 50.0,-9.375 Q100.0,-9.375 100.0,0 L100.0,65.625 Q100.0,75.0 50.0,75.0 Q0,75.0 0,65.625 L0,0 Z" stroke="#333333" stroke-width="2" style="fill:url(#g0)"/><path d="M0,0 Q0,9.375 50.0,9.375 Q100.0,9.375 100.0,0" stroke="#333333" stroke-width="2" fill="none"/><path d="M0,4.6875 Q0,14.0625 50.0,14.0625 Q100.0,14.0625 100.0,4.6875" stroke="#333333" stroke-width="2" fill="none"/><path d="M0,9.375 Q0,18.75 50.0,18.75 Q100.0,18.75 100.0,9.375 " stroke="#333333" stroke-width="2" fill="none"/><g  transform='translate(0.0,42.5)'><text x='50.0' style='text-anchor: middle' y='-2.0'><tspan xml:space='preserve' font-size='12' font-family='Arial' fill='#000000' >REST</tspan></text></g></g><g transform='translate(491.0,295.5) rotate(0 50.0 37.5)'><defs><linearGradient id='g1' x1='50%' y1='-25%' x2='50%' y2='100%'><stop stop-color='white' offset='0%'/><stop stop-color='#d1d1d1' offset='100%'/></linearGradient></defs><g transform='translate(4.0,4.0)'><path d="M0,0 Q0,-9.375 50.0,-9.375 Q100.0,-9.375 100.0,0 L100.0,65.625 Q100.0,75.0 50.0,75.0 Q0,75.0 0,65.625 L0,0 Z" stroke="#A8A8A8" stroke-width="0" stroke-opacity=".6" fill-opacity=".6" fill="#A8A8A8"/></g><path d="M0,0 Q0,-9.375 50.0,-9.375 Q100.0,-9.375 100.0,0 L100.0,65.625 Q100.0,75.0 50.0,75.0 Q0,75.0 0,65.625 L0,0 Z" stroke="#333333" stroke-width="2" style="fill:url(#g1)"/><path d="M0,0 Q0,9.375 50.0,9.375 Q100.0,9.375 100.0,0" stroke="#333333" stroke-width="2" fill="none"/><path d="M0,4.6875 Q0,14.0625 50.0,14.0625 Q100.0,14.0625 100.0,4.6875" stroke="#333333" stroke-width="2" fill="none"/><path d="M0,9.375 Q0,18.75 50.0,18.75 Q100.0,18.75 100.0,9.375 " stroke="#333333" stroke-width="2" fill="none"/><g  transform='translate(0.0,42.5)'><text x='50.0' style='text-anchor: middle' y='-2.0'><tspan xml:space='preserve' font-size='12' font-family='Arial' fill='#000000' >LocalStorage</tspan></text></g></g><g transform='translate(315.5,114.5) rotate(0 67.5 37.5)'><defs><linearGradient id='g2' x1='50%' y1='-25%' x2='50%' y2='100%'><stop stop-color='white' offset='0%'/><stop stop-color='#d1d1d1' offset='100%'/></linearGradient></defs><g transform='translate(4.0,4.0)'><rect width="135.0" height="75.0" stroke="#A8A8A8" stroke-width="0" stroke-opacity=".6" fill-opacity=".6" fill="#A8A8A8"/></g><rect width="135.0" height="75.0" stroke="#333333" stroke-width="2" style="fill:url(#g2)"/><g  transform='translate(0.0,42.5)'><text x='67.5' style='text-anchor: middle' y='-2.0'><tspan xml:space='preserve' font-size='12' font-family='Arial' fill='#000000' >RestMapper</tspan></text></g></g><g transform='translate(318.0,293.5) rotate(0 67.0 37.5)'><defs><linearGradient id='g3' x1='50%' y1='-25%' x2='50%' y2='100%'><stop stop-color='white' offset='0%'/><stop stop-color='#d1d1d1' offset='100%'/></linearGradient></defs><g transform='translate(4.0,4.0)'><rect width="134.0" height="75.0" stroke="#A8A8A8" stroke-width="0" stroke-opacity=".6" fill-opacity=".6" fill="#A8A8A8"/></g><rect width="134.0" height="75.0" stroke="#333333" stroke-width="2" style="fill:url(#g3)"/><g  transform='translate(0.0,42.5)'><text x='67.0' style='text-anchor: middle' y='-2.0'><tspan xml:space='preserve' font-size='12' font-family='Arial' fill='#000000' >LocalStorageMapper</tspan></text></g></g><g transform='translate(290.0,20.0)'><line x1='0.0' y1='0.0' x2='0.0' y2='518.0' stroke-dasharray='23, 0' stroke='#000000' stroke-width='2' /><g transform='translate(0.0,264.0)'><rect fill='#ffffff' x='-8.0' y='-9.0' width='16.0' height='14'/><text x='0.0' style='text-anchor: middle' y='2.0'><tspan font-size='12px' font-family='Arial' fill='#000000' >x</tspan></text></g></g><g transform='translate(474.0,20.0)'><line x1='0.0' y1='0.0' x2='0.0' y2='518.0' stroke-dasharray='23, 0' stroke='#000000' stroke-width='2' /><g transform='translate(0.0,264.0)'><rect fill='#ffffff' x='-8.0' y='-9.0' width='16.0' height='14'/><text x='0.0' style='text-anchor: middle' y='2.0'><tspan font-size='12px' font-family='Arial' fill='#000000' >x</tspan></text></g></g><g transform='translate(27.0,245.5) rotate(0 50.0 37.5)'><defs><linearGradient id='g6' x1='50%' y1='-25%' x2='50%' y2='100%'><stop stop-color='white' offset='0%'/><stop stop-color='#d1d1d1' offset='100%'/></linearGradient></defs><g transform='translate(4.0,4.0)'><rect width="100.0" height="75.0" stroke="#A8A8A8" stroke-width="0" stroke-opacity=".6" fill-opacity=".6" fill="#A8A8A8"/></g><rect width="100.0" height="75.0" stroke="#333333" stroke-width="2" style="fill:url(#g6)"/><g  transform='translate(0.0,42.5)'><text x='50.0' style='text-anchor: middle' y='-2.0'><tspan xml:space='preserve' font-size='12' font-family='Arial' fill='#000000' >Client</tspan></text></g></g><g transform='translate(159.0,245.5) rotate(0 50.0 37.5)'><defs><linearGradient id='g7' x1='50%' y1='-25%' x2='50%' y2='100%'><stop stop-color='white' offset='0%'/><stop stop-color='#d1d1d1' offset='100%'/></linearGradient></defs><g transform='translate(4.0,4.0)'><rect width="100.0" height="75.0" stroke="#A8A8A8" stroke-width="0" stroke-opacity=".6" fill-opacity=".6" fill="#A8A8A8"/></g><rect width="100.0" height="75.0" stroke="#333333" stroke-width="2" style="fill:url(#g7)"/><g  transform='translate(0.0,42.5)'><text x='50.0' style='text-anchor: middle' y='-2.0'><tspan xml:space='preserve' font-size='12' font-family='Arial' fill='#000000' >Repository</tspan></text></g></g></svg>